<?xml version="1.0" encoding="iso-8859-1"?>
<!-- Generator: Adobe Illustrator 19.0.0, SVG Export Plug-In . SVG Version: 6.00 Build 0)  -->
<svg version="1.1" id="Layer_1" xmlns="http://www.w3.org/2000/svg" xmlns:xlink="http://www.w3.org/1999/xlink" x="0px" y="0px"
	 viewBox="0 0 512 512" style="enable-background:new 0 0 512 512;" xml:space="preserve">
<g>
	<g>
		<path d="M256,0C114.843,0,0,114.843,0,256c0,141.157,114.843,256,256,256s256-114.843,256-256C512,114.843,397.157,0,256,0z
			 M256,493.037C125.296,493.037,18.963,386.704,18.963,256C18.963,125.296,125.296,18.963,256,18.963S493.037,125.296,493.037,256
			C493.037,386.704,386.704,493.037,256,493.037z"/>
	</g>
</g>
<g>
	<g>
		<path d="M148.926,211.37L111,173.445c-3.704-3.704-9.704-3.704-13.407,0c-3.704,3.704-3.704,9.704,0,13.408l37.926,37.926
			c1.852,1.852,4.278,2.778,6.704,2.778s4.852-0.926,6.704-2.778C152.63,221.074,152.63,215.074,148.926,211.37z"/>
	</g>
</g>
<g>
	<g>
		<path d="M348.037,173.445c-3.704-3.704-9.704-3.704-13.407,0l-37.926,37.926c-1.852,1.852-2.778,4.278-2.778,6.704
			c0,2.426,0.926,4.852,2.778,6.704c1.852,1.852,4.278,2.778,6.704,2.778s4.852-0.926,6.704-2.778l37.926-37.926
			c1.852-1.852,2.778-4.278,2.778-6.704C350.815,177.722,349.889,175.297,348.037,173.445z"/>
	</g>
</g>
<g>
	<g>
		<path d="M378.861,414.441l-28.444-94.815c-1.204-4.015-4.898-6.782-9.083-6.782H123.259c-3,0-5.815,1.44-7.611,3.841
			c-1.787,2.409-2.333,5.526-1.472,8.396l28.444,94.799c1.204,4.014,4.898,6.742,9.083,6.742h47.35c0,0,0.037,0.005,0.058,0.005
			c0.021,0,0.042-0.005,0.063-0.005h66.25c0,0,0.037,0.005,0.058,0.005c0.021,0,0.042-0.005,0.063-0.005h104.234
			c3,0,5.815-1.394,7.611-3.796C379.176,420.418,379.722,417.31,378.861,414.441z M158.759,407.659L136,331.807h27.611
			l22.755,75.852H158.759z M206.167,407.659l-22.755-75.852h46.569l22.755,75.852H206.167z M272.537,407.659l-22.757-75.852h45.854
			l15.171,75.852H272.537z M330.143,407.659l-15.171-75.852h19.305l22.759,75.852H330.143z"/>
	</g>
</g>
<g>
</g>
<g>
</g>
<g>
</g>
<g>
</g>
<g>
</g>
<g>
</g>
<g>
</g>
<g>
</g>
<g>
</g>
<g>
</g>
<g>
</g>
<g>
</g>
<g>
</g>
<g>
</g>
<g>
</g>
</svg>
